<svg xmlns="http://www.w3.org/2000/svg" xmlns:xlink="http://www.w3.org/1999/xlink" width="500" zoomAndPan="magnify" viewBox="0 0 375 374.999991" height="500" preserveAspectRatio="xMidYMid meet" version="1.0"><defs><g/></defs><rect x="-37.5" width="450" fill="#ffffff" y="-37.499999" height="449.999989" fill-opacity="1"/><rect x="-37.5" width="450" fill="#efeee9" y="-37.499999" height="449.999989" fill-opacity="1"/><g fill="#000000" fill-opacity="1"><g transform="translate(29.986822, 262.870975)"><g><path d="M 4.4375 -52.265625 L 5.109375 -51.640625 C 4.453125 -50.910156 4.03125 -50.296875 3.84375 -49.796875 C 3.65625 -49.304688 3.695312 -48.8125 3.96875 -48.3125 C 4.238281 -47.820312 4.789062 -47.191406 5.625 -46.421875 L 22.25 -30.796875 C 23.050781 -30.035156 23.710938 -29.523438 24.234375 -29.265625 C 24.753906 -29.015625 25.25 -29.003906 25.71875 -29.234375 C 26.1875 -29.472656 26.78125 -29.925781 27.5 -30.59375 L 28.171875 -29.96875 C 27.535156 -29.382812 26.765625 -28.617188 25.859375 -27.671875 C 24.953125 -26.734375 24.035156 -25.773438 23.109375 -24.796875 C 22.097656 -23.722656 21.160156 -22.710938 20.296875 -21.765625 C 19.429688 -20.816406 18.75 -20.03125 18.25 -19.40625 L 17.578125 -20.03125 C 18.242188 -20.84375 18.691406 -21.503906 18.921875 -22.015625 C 19.160156 -22.523438 19.140625 -23.035156 18.859375 -23.546875 C 18.585938 -24.066406 18.050781 -24.707031 17.25 -25.46875 L -0.890625 -42.515625 L -0.671875 -42.75 L 13.234375 -14.015625 L 12.71875 -13.46875 L -17.359375 -24.71875 L -1.3125 -9.640625 C -0.0820312 -8.484375 0.921875 -7.660156 1.703125 -7.171875 C 2.492188 -6.679688 3.242188 -6.535156 3.953125 -6.734375 C 4.660156 -6.929688 5.535156 -7.460938 6.578125 -8.328125 L 7.25 -7.703125 C 6.800781 -7.316406 6.242188 -6.785156 5.578125 -6.109375 C 4.921875 -5.429688 4.304688 -4.789062 3.734375 -4.1875 C 3.242188 -3.664062 2.753906 -3.128906 2.265625 -2.578125 C 1.785156 -2.035156 1.398438 -1.566406 1.109375 -1.171875 L 0.4375 -1.796875 C 0.988281 -2.628906 1.296875 -3.347656 1.359375 -3.953125 C 1.429688 -4.554688 1.21875 -5.207031 0.71875 -5.90625 C 0.226562 -6.613281 -0.550781 -7.46875 -1.625 -8.46875 L -16.703125 -22.65625 C -17.535156 -23.425781 -18.207031 -23.929688 -18.71875 -24.171875 C -19.226562 -24.421875 -19.726562 -24.429688 -20.21875 -24.203125 C -20.707031 -23.972656 -21.285156 -23.519531 -21.953125 -22.84375 L -22.625 -23.46875 C -22.257812 -23.800781 -21.816406 -24.226562 -21.296875 -24.75 C -20.785156 -25.269531 -20.285156 -25.789062 -19.796875 -26.3125 C -18.890625 -27.269531 -18.007812 -28.21875 -17.15625 -29.15625 C -16.300781 -30.101562 -15.554688 -30.941406 -14.921875 -31.671875 L 8.703125 -22.75 L 8.6875 -21.203125 L -2.65625 -44.546875 C -2.300781 -44.921875 -1.929688 -45.3125 -1.546875 -45.71875 C -1.171875 -46.125 -0.796875 -46.523438 -0.421875 -46.921875 C 0.503906 -47.898438 1.40625 -48.875 2.28125 -49.84375 C 3.15625 -50.8125 3.875 -51.617188 4.4375 -52.265625 Z M 4.4375 -52.265625 "/></g></g></g><g fill="#000000" fill-opacity="1"><g transform="translate(61.739358, 230.909894)"><g><path d="M -7.1875 -35.46875 L -6.625 -34.734375 C -7.382812 -34.117188 -7.90625 -33.578125 -8.1875 -33.109375 C -8.46875 -32.640625 -8.503906 -32.144531 -8.296875 -31.625 C -8.097656 -31.101562 -7.65625 -30.394531 -6.96875 -29.5 L 6.859375 -11.34375 C 7.523438 -10.46875 8.085938 -9.859375 8.546875 -9.515625 C 9.015625 -9.179688 9.503906 -9.09375 10.015625 -9.25 C 10.523438 -9.40625 11.179688 -9.753906 11.984375 -10.296875 L 12.546875 -9.5625 C 11.847656 -9.113281 10.992188 -8.515625 9.984375 -7.765625 C 8.984375 -7.015625 7.96875 -6.242188 6.9375 -5.453125 C 5.75 -4.546875 4.648438 -3.703125 3.640625 -2.921875 C 2.640625 -2.140625 1.84375 -1.484375 1.25 -0.953125 L 0.6875 -1.6875 C 1.425781 -2.332031 1.9375 -2.875 2.21875 -3.3125 C 2.5 -3.757812 2.535156 -4.253906 2.328125 -4.796875 C 2.128906 -5.335938 1.695312 -6.046875 1.03125 -6.921875 L -12.796875 -25.078125 C -13.484375 -25.972656 -14.050781 -26.582031 -14.5 -26.90625 C -14.957031 -27.226562 -15.453125 -27.316406 -15.984375 -27.171875 C -16.515625 -27.023438 -17.160156 -26.675781 -17.921875 -26.125 L -18.484375 -26.859375 C -17.828125 -27.304688 -16.984375 -27.90625 -15.953125 -28.65625 C -14.929688 -29.40625 -13.828125 -30.234375 -12.640625 -31.140625 C -11.609375 -31.929688 -10.597656 -32.71875 -9.609375 -33.5 C -8.628906 -34.28125 -7.820312 -34.9375 -7.1875 -35.46875 Z M -7.1875 -35.46875 "/></g></g></g><g fill="#000000" fill-opacity="1"><g transform="translate(77.583693, 218.383843)"><g><path d="M 12.03125 -43.953125 L 12.484375 -43.15625 C 11.679688 -42.570312 11.15625 -41.988281 10.90625 -41.40625 C 10.664062 -40.832031 10.671875 -40.140625 10.921875 -39.328125 C 11.179688 -38.523438 11.675781 -37.472656 12.40625 -36.171875 L 24.890625 -13.734375 C 24.546875 -13.578125 24.203125 -13.40625 23.859375 -13.21875 C 23.523438 -13.03125 23.1875 -12.820312 22.84375 -12.59375 L -6.890625 -25.015625 L 1.6875 -9.578125 C 2.507812 -8.109375 3.21875 -7.019531 3.8125 -6.3125 C 4.414062 -5.601562 5.082031 -5.234375 5.8125 -5.203125 C 6.550781 -5.179688 7.546875 -5.429688 8.796875 -5.953125 L 9.25 -5.140625 C 8.707031 -4.910156 8.019531 -4.570312 7.1875 -4.125 C 6.351562 -3.675781 5.570312 -3.25 4.84375 -2.84375 C 4.21875 -2.5 3.585938 -2.140625 2.953125 -1.765625 C 2.316406 -1.398438 1.800781 -1.070312 1.40625 -0.78125 L 0.953125 -1.59375 C 1.734375 -2.207031 2.25 -2.789062 2.5 -3.34375 C 2.75 -3.894531 2.742188 -4.578125 2.484375 -5.390625 C 2.222656 -6.210938 1.738281 -7.269531 1.03125 -8.5625 L -9.03125 -26.65625 C -9.582031 -27.644531 -10.0625 -28.332031 -10.46875 -28.71875 C -10.882812 -29.101562 -11.359375 -29.257812 -11.890625 -29.1875 C -12.429688 -29.125 -13.125 -28.875 -13.96875 -28.4375 L -14.421875 -29.234375 C -13.984375 -29.453125 -13.4375 -29.722656 -12.78125 -30.046875 C -12.125 -30.378906 -11.484375 -30.71875 -10.859375 -31.0625 C -10.210938 -31.425781 -9.601562 -31.785156 -9.03125 -32.140625 C -8.457031 -32.492188 -7.9375 -32.8125 -7.46875 -33.09375 L 18.75 -22.59375 L 11.75 -35.1875 C 10.9375 -36.65625 10.226562 -37.738281 9.625 -38.4375 C 9.019531 -39.132812 8.347656 -39.503906 7.609375 -39.546875 C 6.867188 -39.597656 5.878906 -39.347656 4.640625 -38.796875 L 4.1875 -39.59375 C 4.707031 -39.851562 5.390625 -40.203125 6.234375 -40.640625 C 7.085938 -41.078125 7.875 -41.492188 8.59375 -41.890625 C 9.238281 -42.253906 9.867188 -42.625 10.484375 -43 C 11.097656 -43.375 11.613281 -43.691406 12.03125 -43.953125 Z M 12.03125 -43.953125 "/></g></g></g><g fill="#000000" fill-opacity="1"><g transform="translate(108.460468, 201.244904)"><g><path d="M 20 -6.59375 L 19.71875 -7.46875 C 20.632812 -7.84375 21.296875 -8.191406 21.703125 -8.515625 C 22.117188 -8.847656 22.316406 -9.300781 22.296875 -9.875 C 22.273438 -10.457031 22.09375 -11.269531 21.75 -12.3125 L 14.609375 -33.984375 C 14.253906 -35.054688 13.910156 -35.820312 13.578125 -36.28125 C 13.253906 -36.738281 12.816406 -36.984375 12.265625 -37.015625 C 11.722656 -37.046875 11 -36.921875 10.09375 -36.640625 L 9.796875 -37.515625 C 10.597656 -37.742188 11.632812 -38.054688 12.90625 -38.453125 C 14.1875 -38.847656 15.457031 -39.25 16.71875 -39.65625 C 18.050781 -40.101562 19.300781 -40.53125 20.46875 -40.9375 C 21.632812 -41.351562 22.578125 -41.695312 23.296875 -41.96875 L 23.59375 -41.09375 C 22.664062 -40.769531 21.992188 -40.429688 21.578125 -40.078125 C 21.160156 -39.734375 20.960938 -39.28125 20.984375 -38.71875 C 21.003906 -38.15625 21.191406 -37.335938 21.546875 -36.265625 L 28.6875 -14.59375 C 29.03125 -13.550781 29.375 -12.796875 29.71875 -12.328125 C 30.0625 -11.859375 30.492188 -11.613281 31.015625 -11.59375 C 31.535156 -11.570312 32.269531 -11.679688 33.21875 -11.921875 L 33.5 -11.046875 C 32.75 -10.867188 31.78125 -10.59375 30.59375 -10.21875 C 29.414062 -9.851562 28.160156 -9.445312 26.828125 -9 C 25.566406 -8.59375 24.304688 -8.171875 23.046875 -7.734375 C 21.785156 -7.296875 20.769531 -6.914062 20 -6.59375 Z M 1.484375 -0.484375 L 1.203125 -1.359375 C 2.109375 -1.734375 2.765625 -2.082031 3.171875 -2.40625 C 3.585938 -2.738281 3.785156 -3.191406 3.765625 -3.765625 C 3.753906 -4.347656 3.578125 -5.160156 3.234375 -6.203125 L -3.90625 -27.875 C -4.257812 -28.945312 -4.601562 -29.710938 -4.9375 -30.171875 C -5.269531 -30.628906 -5.707031 -30.875 -6.25 -30.90625 C -6.800781 -30.9375 -7.523438 -30.8125 -8.421875 -30.53125 L -8.71875 -31.40625 C -7.945312 -31.625 -6.953125 -31.921875 -5.734375 -32.296875 C -4.515625 -32.671875 -3.191406 -33.09375 -1.765625 -33.5625 C -0.546875 -33.96875 0.648438 -34.378906 1.828125 -34.796875 C 3.015625 -35.210938 4 -35.566406 4.78125 -35.859375 L 5.078125 -34.984375 C 4.148438 -34.660156 3.472656 -34.320312 3.046875 -33.96875 C 2.628906 -33.613281 2.429688 -33.15625 2.453125 -32.59375 C 2.484375 -32.039062 2.675781 -31.226562 3.03125 -30.15625 L 10.171875 -8.484375 C 10.515625 -7.441406 10.851562 -6.679688 11.1875 -6.203125 C 11.53125 -5.734375 11.960938 -5.488281 12.484375 -5.46875 C 13.015625 -5.457031 13.753906 -5.570312 14.703125 -5.8125 L 14.984375 -4.9375 C 14.171875 -4.738281 13.164062 -4.453125 11.96875 -4.078125 C 10.769531 -3.703125 9.5625 -3.3125 8.34375 -2.90625 C 6.914062 -2.4375 5.597656 -1.992188 4.390625 -1.578125 C 3.191406 -1.160156 2.222656 -0.796875 1.484375 -0.484375 Z M 3.890625 -18.046875 L 3.59375 -18.921875 L 20.84375 -24.625 L 21.140625 -23.75 Z M 3.890625 -18.046875 "/></g></g></g><g fill="#000000" fill-opacity="1"><g transform="translate(145.372366, 189.327572)"><g><path d="M 11.625 -34.265625 C 17.625 -35.015625 22.253906 -34.207031 25.515625 -31.84375 C 28.773438 -29.476562 30.71875 -25.757812 31.34375 -20.6875 C 31.757812 -17.363281 31.40625 -14.375 30.28125 -11.71875 C 29.164062 -9.0625 27.332031 -6.878906 24.78125 -5.171875 C 22.226562 -3.460938 19.046875 -2.367188 15.234375 -1.890625 C 14.753906 -1.835938 14.113281 -1.773438 13.3125 -1.703125 C 12.519531 -1.640625 11.695312 -1.5625 10.84375 -1.46875 C 9.988281 -1.375 9.226562 -1.285156 8.5625 -1.203125 C 7.226562 -1.035156 5.914062 -0.863281 4.625 -0.6875 C 3.332031 -0.519531 2.304688 -0.351562 1.546875 -0.1875 L 1.4375 -1.109375 C 2.40625 -1.296875 3.125 -1.507812 3.59375 -1.75 C 4.0625 -1.988281 4.34375 -2.390625 4.4375 -2.953125 C 4.539062 -3.523438 4.519531 -4.363281 4.375 -5.46875 L 1.5625 -28.09375 C 1.425781 -29.226562 1.238281 -30.050781 1 -30.5625 C 0.769531 -31.070312 0.390625 -31.394531 -0.140625 -31.53125 C -0.671875 -31.664062 -1.410156 -31.679688 -2.359375 -31.578125 L -2.484375 -32.5 C -1.703125 -32.570312 -0.664062 -32.664062 0.625 -32.78125 C 1.925781 -32.894531 3.210938 -33.050781 4.484375 -33.25 C 5.578125 -33.40625 6.8125 -33.582031 8.1875 -33.78125 C 9.5625 -33.988281 10.707031 -34.148438 11.625 -34.265625 Z M 11.6875 -33.421875 C 10.28125 -33.253906 9.394531 -32.882812 9.03125 -32.3125 C 8.675781 -31.75 8.597656 -30.675781 8.796875 -29.09375 L 11.640625 -6.28125 C 11.835938 -4.695312 12.1875 -3.671875 12.6875 -3.203125 C 13.1875 -2.742188 14.140625 -2.601562 15.546875 -2.78125 C 18.097656 -3.09375 20.039062 -3.941406 21.375 -5.328125 C 22.707031 -6.722656 23.546875 -8.613281 23.890625 -11 C 24.234375 -13.382812 24.203125 -16.238281 23.796875 -19.5625 C 23.367188 -22.96875 22.675781 -25.742188 21.71875 -27.890625 C 20.757812 -30.046875 19.460938 -31.582031 17.828125 -32.5 C 16.191406 -33.425781 14.144531 -33.734375 11.6875 -33.421875 Z M 11.6875 -33.421875 "/></g></g></g><g fill="#000000" fill-opacity="1"><g transform="translate(182.996977, 185.026764)"><g><path d="M 32.734375 -30.6875 L 32.671875 -29.765625 C 31.691406 -29.703125 30.9375 -29.492188 30.40625 -29.140625 C 29.875 -28.796875 29.507812 -28.210938 29.3125 -27.390625 C 29.113281 -26.578125 28.96875 -25.421875 28.875 -23.921875 L 28.15625 -11.765625 C 28.039062 -9.765625 27.796875 -7.941406 27.421875 -6.296875 C 27.046875 -4.660156 26.472656 -3.273438 25.703125 -2.140625 C 24.816406 -0.859375 23.585938 0.113281 22.015625 0.78125 C 20.453125 1.457031 18.488281 1.726562 16.125 1.59375 C 14.71875 1.507812 13.285156 1.257812 11.828125 0.84375 C 10.378906 0.4375 9.097656 -0.238281 7.984375 -1.1875 C 7.054688 -2.070312 6.363281 -3.050781 5.90625 -4.125 C 5.445312 -5.195312 5.171875 -6.445312 5.078125 -7.875 C 4.984375 -9.3125 4.992188 -11.015625 5.109375 -12.984375 L 5.953125 -27.390625 C 6.023438 -28.523438 5.988281 -29.363281 5.84375 -29.90625 C 5.707031 -30.457031 5.398438 -30.84375 4.921875 -31.0625 C 4.441406 -31.289062 3.710938 -31.445312 2.734375 -31.53125 L 2.796875 -32.453125 C 3.554688 -32.367188 4.582031 -32.273438 5.875 -32.171875 C 7.175781 -32.078125 8.53125 -31.988281 9.9375 -31.90625 C 11.351562 -31.820312 12.707031 -31.753906 14 -31.703125 C 15.300781 -31.648438 16.382812 -31.613281 17.25 -31.59375 L 17.1875 -30.671875 C 16.144531 -30.710938 15.351562 -30.648438 14.8125 -30.484375 C 14.269531 -30.316406 13.890625 -29.96875 13.671875 -29.4375 C 13.460938 -28.914062 13.320312 -28.085938 13.25 -26.953125 L 12.234375 -9.640625 C 12.140625 -8.109375 12.15625 -6.75 12.28125 -5.5625 C 12.414062 -4.375 12.691406 -3.375 13.109375 -2.5625 C 13.535156 -1.757812 14.148438 -1.132812 14.953125 -0.6875 C 15.765625 -0.238281 16.785156 0.0195312 18.015625 0.09375 C 20.160156 0.21875 21.863281 -0.1875 23.125 -1.125 C 24.394531 -2.0625 25.332031 -3.410156 25.9375 -5.171875 C 26.550781 -6.941406 26.925781 -8.988281 27.0625 -11.3125 L 27.78125 -23.4375 C 27.882812 -25.113281 27.851562 -26.410156 27.6875 -27.328125 C 27.53125 -28.242188 27.148438 -28.914062 26.546875 -29.34375 C 25.941406 -29.78125 25 -30.097656 23.71875 -30.296875 L 23.78125 -31.21875 C 24.34375 -31.144531 25.097656 -31.066406 26.046875 -30.984375 C 27.003906 -30.898438 27.894531 -30.835938 28.71875 -30.796875 C 29.457031 -30.753906 30.1875 -30.722656 30.90625 -30.703125 C 31.625 -30.691406 32.234375 -30.6875 32.734375 -30.6875 Z M 32.734375 -30.6875 "/></g></g></g><g fill="#000000" fill-opacity="1"><g transform="translate(216.940209, 187.198506)"><g><path d="M 25.46875 -28.078125 C 27.4375 -27.609375 28.984375 -26.929688 30.109375 -26.046875 C 31.234375 -25.160156 32.195312 -24.207031 33 -23.1875 C 33.488281 -22.601562 33.929688 -22.445312 34.328125 -22.71875 C 34.722656 -22.988281 35.132812 -23.75 35.5625 -25 L 36.59375 -24.75 C 36.257812 -23.601562 35.878906 -22.207031 35.453125 -20.5625 C 35.023438 -18.914062 34.484375 -16.722656 33.828125 -13.984375 L 32.796875 -14.21875 C 32.972656 -15.625 33.054688 -16.84375 33.046875 -17.875 C 33.046875 -18.90625 32.925781 -19.84375 32.6875 -20.6875 C 32.445312 -21.53125 32.007812 -22.34375 31.375 -23.125 C 30.8125 -24.03125 30.078125 -24.78125 29.171875 -25.375 C 28.265625 -25.976562 27.273438 -26.40625 26.203125 -26.65625 C 24.609375 -27.039062 23.140625 -26.941406 21.796875 -26.359375 C 20.460938 -25.785156 19.265625 -24.851562 18.203125 -23.5625 C 17.148438 -22.269531 16.242188 -20.742188 15.484375 -18.984375 C 14.734375 -17.222656 14.117188 -15.359375 13.640625 -13.390625 C 13.171875 -11.390625 12.882812 -9.429688 12.78125 -7.515625 C 12.6875 -5.597656 12.832031 -3.835938 13.21875 -2.234375 C 13.613281 -0.628906 14.289062 0.726562 15.25 1.84375 C 16.21875 2.957031 17.492188 3.703125 19.078125 4.078125 C 20.054688 4.316406 21.09375 4.367188 22.1875 4.234375 C 23.28125 4.097656 24.265625 3.753906 25.140625 3.203125 C 26.523438 2.585938 27.585938 1.664062 28.328125 0.4375 C 29.066406 -0.789062 29.796875 -2.484375 30.515625 -4.640625 L 31.546875 -4.40625 C 30.867188 -1.5625 30.335938 0.734375 29.953125 2.484375 C 29.566406 4.234375 29.265625 5.710938 29.046875 6.921875 L 28.015625 6.671875 C 28.191406 5.359375 28.175781 4.503906 27.96875 4.109375 C 27.769531 3.722656 27.289062 3.660156 26.53125 3.921875 C 25.25 4.429688 23.914062 4.828125 22.53125 5.109375 C 21.15625 5.398438 19.5 5.3125 17.5625 4.84375 C 14.40625 4.09375 11.789062 2.796875 9.71875 0.953125 C 7.65625 -0.890625 6.257812 -3.175781 5.53125 -5.90625 C 4.800781 -8.644531 4.84375 -11.71875 5.65625 -15.125 C 6.445312 -18.457031 7.816406 -21.21875 9.765625 -23.40625 C 11.710938 -25.59375 14.039062 -27.101562 16.75 -27.9375 C 19.457031 -28.769531 22.363281 -28.816406 25.46875 -28.078125 Z M 25.46875 -28.078125 "/></g></g></g><g fill="#000000" fill-opacity="1"><g transform="translate(251.248592, 196.254154)"><g><path d="M 8.09375 -3.8125 C 9.207031 -3.382812 9.984375 -2.75 10.421875 -1.90625 C 10.859375 -1.0625 10.878906 -0.125 10.484375 0.90625 C 10.085938 1.9375 9.445312 2.613281 8.5625 2.9375 C 7.675781 3.269531 6.675781 3.222656 5.5625 2.796875 C 4.445312 2.378906 3.671875 1.75 3.234375 0.90625 C 2.796875 0.0703125 2.773438 -0.859375 3.171875 -1.890625 C 3.566406 -2.921875 4.207031 -3.601562 5.09375 -3.9375 C 5.976562 -4.269531 6.976562 -4.226562 8.09375 -3.8125 Z M 8.09375 -3.8125 "/></g></g></g><g fill="#000000" fill-opacity="1"><g transform="translate(265.878484, 201.194286)"><g><path d="M 29.5 -20.953125 C 34.800781 -18.046875 38.078125 -14.679688 39.328125 -10.859375 C 40.585938 -7.035156 39.988281 -2.878906 37.53125 1.609375 C 35.914062 4.535156 33.875 6.75 31.40625 8.25 C 28.945312 9.75 26.179688 10.441406 23.109375 10.328125 C 20.035156 10.210938 16.820312 9.234375 13.46875 7.390625 C 13.039062 7.148438 12.484375 6.828125 11.796875 6.421875 C 11.109375 6.015625 10.390625 5.59375 9.640625 5.15625 C 8.898438 4.726562 8.234375 4.351562 7.640625 4.03125 C 6.460938 3.382812 5.300781 2.753906 4.15625 2.140625 C 3.007812 1.535156 2.082031 1.070312 1.375 0.75 L 1.8125 -0.0625 C 2.695312 0.351562 3.398438 0.597656 3.921875 0.671875 C 4.441406 0.753906 4.90625 0.59375 5.3125 0.1875 C 5.726562 -0.21875 6.203125 -0.90625 6.734375 -1.875 L 17.71875 -21.859375 C 18.257812 -22.859375 18.585938 -23.628906 18.703125 -24.171875 C 18.816406 -24.722656 18.695312 -25.207031 18.34375 -25.625 C 17.988281 -26.050781 17.40625 -26.503906 16.59375 -26.984375 L 17.046875 -27.796875 C 17.703125 -27.390625 18.585938 -26.851562 19.703125 -26.1875 C 20.828125 -25.53125 21.960938 -24.90625 23.109375 -24.3125 C 24.085938 -23.800781 25.191406 -23.222656 26.421875 -22.578125 C 27.660156 -21.941406 28.6875 -21.398438 29.5 -20.953125 Z M 29.0625 -20.234375 C 27.820312 -20.921875 26.890625 -21.140625 26.265625 -20.890625 C 25.640625 -20.640625 24.945312 -19.816406 24.1875 -18.421875 L 13.109375 1.75 C 12.347656 3.144531 12.035156 4.175781 12.171875 4.84375 C 12.304688 5.519531 12.992188 6.195312 14.234375 6.875 C 16.492188 8.113281 18.566406 8.554688 20.453125 8.203125 C 22.347656 7.847656 24.132812 6.804688 25.8125 5.078125 C 27.488281 3.347656 29.128906 1.019531 30.734375 -1.90625 C 32.390625 -4.914062 33.457031 -7.570312 33.9375 -9.875 C 34.425781 -12.1875 34.273438 -14.191406 33.484375 -15.890625 C 32.703125 -17.597656 31.226562 -19.046875 29.0625 -20.234375 Z M 29.0625 -20.234375 "/></g></g></g><g fill="#000000" fill-opacity="1"><g transform="translate(298.916597, 219.887967)"><g><path d="M 40.828125 -8.90625 C 39.878906 -7.9375 38.992188 -6.972656 38.171875 -6.015625 C 37.347656 -5.066406 36.722656 -4.332031 36.296875 -3.8125 C 35.910156 -3.332031 35.554688 -2.867188 35.234375 -2.421875 C 34.910156 -1.984375 34.640625 -1.609375 34.421875 -1.296875 L 33.609375 -1.953125 C 34.773438 -3.890625 35.519531 -5.566406 35.84375 -6.984375 C 36.164062 -8.410156 36.09375 -9.65625 35.625 -10.71875 C 35.164062 -11.78125 34.398438 -12.742188 33.328125 -13.609375 L 31.859375 -14.796875 C 31.171875 -15.347656 30.597656 -15.707031 30.140625 -15.875 C 29.679688 -16.039062 29.242188 -15.992188 28.828125 -15.734375 C 28.421875 -15.484375 27.921875 -14.988281 27.328125 -14.25 L 12.3125 4.359375 C 11.707031 5.109375 11.320312 5.710938 11.15625 6.171875 C 10.988281 6.628906 11.035156 7.0625 11.296875 7.46875 C 11.566406 7.875 12.046875 8.351562 12.734375 8.90625 L 14.484375 10.3125 C 15.566406 11.1875 16.707031 11.722656 17.90625 11.921875 C 19.101562 12.117188 20.441406 11.894531 21.921875 11.25 C 23.410156 10.601562 25.082031 9.445312 26.9375 7.78125 L 27.75 8.4375 C 27.0625 9.144531 26.21875 10.125 25.21875 11.375 C 24.78125 11.914062 24.164062 12.695312 23.375 13.71875 C 22.59375 14.738281 21.832031 15.835938 21.09375 17.015625 C 19.914062 15.984375 18.566406 14.84375 17.046875 13.59375 C 15.523438 12.351562 14.171875 11.253906 12.984375 10.296875 C 12.378906 9.804688 11.613281 9.1875 10.6875 8.4375 C 9.757812 7.6875 8.753906 6.882812 7.671875 6.03125 C 6.585938 5.175781 5.488281 4.3125 4.375 3.4375 C 3.269531 2.570312 2.21875 1.753906 1.21875 0.984375 L 1.796875 0.265625 C 2.597656 0.828125 3.25 1.191406 3.75 1.359375 C 4.25 1.523438 4.734375 1.445312 5.203125 1.125 C 5.679688 0.8125 6.269531 0.222656 6.96875 -0.640625 L 21.296875 -18.390625 C 22.003906 -19.273438 22.460938 -19.976562 22.671875 -20.5 C 22.878906 -21.03125 22.847656 -21.53125 22.578125 -22 C 22.304688 -22.476562 21.8125 -23.023438 21.09375 -23.640625 L 21.671875 -24.359375 C 22.628906 -23.546875 23.648438 -22.6875 24.734375 -21.78125 C 25.828125 -20.882812 26.90625 -20 27.96875 -19.125 C 29.039062 -18.257812 30.039062 -17.453125 30.96875 -16.703125 C 31.894531 -15.953125 32.660156 -15.332031 33.265625 -14.84375 C 34.359375 -13.96875 35.609375 -12.96875 37.015625 -11.84375 C 38.421875 -10.71875 39.691406 -9.738281 40.828125 -8.90625 Z M 25.359375 -1.171875 C 25.359375 -1.171875 25.257812 -1.050781 25.0625 -0.8125 C 24.875 -0.570312 24.78125 -0.453125 24.78125 -0.453125 L 18.53125 -5.515625 C 18.53125 -5.515625 18.625 -5.632812 18.8125 -5.875 C 19.007812 -6.113281 19.109375 -6.234375 19.109375 -6.234375 Z M 30.21875 -5.0625 C 29.007812 -3.78125 28.125 -2.773438 27.5625 -2.046875 C 27.007812 -1.328125 26.488281 -0.671875 26 -0.078125 C 25.519531 0.523438 25 1.191406 24.4375 1.921875 C 23.882812 2.660156 23.113281 3.753906 22.125 5.203125 L 21.296875 4.53125 C 21.847656 3.601562 22.25 2.648438 22.5 1.671875 C 22.75 0.691406 22.753906 -0.253906 22.515625 -1.171875 C 22.285156 -2.097656 21.691406 -2.953125 20.734375 -3.734375 L 21.3125 -4.453125 C 22.03125 -3.867188 22.757812 -3.519531 23.5 -3.40625 C 24.238281 -3.300781 24.96875 -3.363281 25.6875 -3.59375 C 26.40625 -3.820312 27.078125 -4.132812 27.703125 -4.53125 C 28.335938 -4.925781 28.898438 -5.320312 29.390625 -5.71875 Z M 30.21875 -5.0625 "/></g></g></g><g fill="#000000" fill-opacity="1"><g transform="translate(323.460292, 239.874738)"><g><path d="M 45.0625 1.6875 L 44.375 2.296875 C 43.738281 1.941406 42.863281 1.757812 41.75 1.75 C 40.632812 1.75 39.207031 2.082031 37.46875 2.75 L 11.390625 12.953125 C 11.242188 12.742188 11.078125 12.535156 10.890625 12.328125 C 10.710938 12.128906 10.535156 11.925781 10.359375 11.71875 C 10.191406 11.53125 10.015625 11.332031 9.828125 11.125 C 9.648438 10.925781 9.472656 10.742188 9.296875 10.578125 L 23.015625 -17.3125 C 23.546875 -18.375 23.796875 -19.234375 23.765625 -19.890625 C 23.734375 -20.554688 23.578125 -21.066406 23.296875 -21.421875 L 23.984375 -22.03125 C 24.554688 -21.320312 25.242188 -20.492188 26.046875 -19.546875 C 26.859375 -18.609375 27.6875 -17.671875 28.53125 -16.734375 C 29.46875 -15.671875 30.351562 -14.6875 31.1875 -13.78125 C 32.03125 -12.875 32.722656 -12.140625 33.265625 -11.578125 L 32.578125 -10.96875 C 31.898438 -11.695312 31.300781 -12.195312 30.78125 -12.46875 C 30.269531 -12.75 29.789062 -12.734375 29.34375 -12.421875 C 28.90625 -12.117188 28.429688 -11.445312 27.921875 -10.40625 L 17.5625 10 L 16.078125 10.03125 L 33.0625 3.40625 C 35.332031 2.507812 36.96875 1.628906 37.96875 0.765625 C 38.976562 -0.0859375 39.476562 -0.957031 39.46875 -1.84375 C 39.457031 -2.738281 39.046875 -3.664062 38.234375 -4.625 L 38.921875 -5.234375 C 39.578125 -4.429688 40.203125 -3.675781 40.796875 -2.96875 C 41.398438 -2.269531 42.015625 -1.566406 42.640625 -0.859375 C 43.085938 -0.347656 43.519531 0.117188 43.9375 0.546875 C 44.351562 0.984375 44.726562 1.363281 45.0625 1.6875 Z M 45.0625 1.6875 "/></g></g></g></svg>